<svg width="592" height="137" viewBox="0 0 592 137" fill="none" xmlns="http://www.w3.org/2000/svg">
<path d="M133.733 55.3054V81.7596C133.733 85.6234 131.917 89.2146 128.928 91.2398C126.415 92.9425 123.032 95.1119 119.033 97.3725V55.3054H133.733Z" fill="#FF4667"/>
<path d="M118.283 55.3054V97.558C107.507 103.691 92.2903 110.491 77.846 110.491C58.0493 110.491 36.8011 97.7115 27.5141 91.4005C24.5247 89.3674 22.7094 85.7615 22.7094 81.882V55.3054H118.283V55.3054Z" fill="#FF4667"/>
<path d="M133 54.7539V80.5908C133 84.3769 131.185 87.8941 128.196 89.8762C118.91 96.0344 97.6626 108.503 77.864 108.503C58.0655 108.503 36.8187 96.0344 27.5321 89.8762C24.5435 87.8941 22.7277 84.3769 22.7277 80.5908V54.7539H133ZM136.001 51.7502H133H22.7281H19.7275V54.7539V80.5908C19.7275 85.4199 22.0256 89.8274 25.875 92.3801C30.7676 95.6247 38.5017 100.318 47.5614 104.254C58.6389 109.067 68.834 111.507 77.864 111.507C86.894 111.507 97.0891 109.067 108.167 104.254C117.226 100.318 124.96 95.6244 129.853 92.3801C133.702 89.8274 136.001 85.4199 136.001 80.5908V54.7539V51.7502V51.7502Z" fill="#FF4667"/>
<path d="M127.087 116.549H109.48V115.31C109.48 110.443 113.422 106.498 118.283 106.498C123.145 106.498 127.087 110.444 127.087 115.31V116.549H127.087Z" fill="white"/>
<path d="M147.915 51.3281L81.2315 83.1066C78.9859 84.1767 76.3776 84.174 74.1342 83.0991L7.08657 50.976C0.870756 47.9979 0.83775 39.1518 7.03106 36.1271L74.0423 3.40173C76.3371 2.28099 79.0215 2.28888 81.3099 3.42313L148.03 36.4935C154.192 39.5479 154.124 48.3696 147.915 51.3281Z" fill="#392C7D"/>
<path d="M77.6546 3.95034C78.5736 3.95034 79.4921 4.15612 80.3372 4.5677L148.637 37.8202C153.159 40.0219 153.109 46.381 148.553 48.5141L80.2802 80.4729C79.4584 80.8575 78.5698 81.05 77.6816 81.05C76.7889 81.05 75.897 80.856 75.0718 80.4677L6.43605 48.167C1.87434 46.0203 1.85033 39.6435 6.39517 37.4632L75.0036 4.55221C75.8404 4.15096 76.7477 3.95034 77.6546 3.95034ZM77.6546 1C76.2875 1 74.9162 1.31163 73.6882 1.90059L5.07977 34.8116C1.93322 36.3211 -0.0130618 39.3968 6.59941e-05 42.8387C0.0131938 46.2807 1.98274 49.342 5.14053 50.8282L73.7759 83.1285C74.9878 83.6987 76.3381 84 77.6813 84C79.018 84 80.3627 83.7013 81.5697 83.1363L149.842 51.1775C152.996 49.7009 154.973 46.6502 155 43.2153C155.027 39.7807 153.099 36.7002 149.968 35.176L81.6687 1.92382C80.4276 1.31937 79.0394 1 77.6546 1Z" fill="#392C7D"/>
</svg>
